<svg xmlns="http://www.w3.org/2000/svg" viewBox="0 0 106.134 154.391">
    <defs>
        <style>
            .cls-1{fill:#f8f8f8}.cls-2{fill:#33b7f8}
        </style>
    </defs>
    <g id="premium-afiliado-img" transform="translate(-890 -416.609)">
        <g id="_018-shield-1" data-name="018-shield-1" transform="translate(890 416.609)">
            <path id="Path_497" d="M64.242 16.051C49.769 30.523 16 35.347 16 35.347v74.631a38.591 38.591 0 0 0 18.737 33.095l29.505 17.705 29.5-17.705a38.593 38.593 0 0 0 18.738-33.095V35.347c-33.765 0-48.238-19.296-48.238-19.296zm0 0" class="cls-1" data-name="Path 497" transform="translate(-11.175 -11.211)"/>
            <g id="Group_598" data-name="Group 598">
                <path id="Path_498" d="M101.309 19.312c-30.709 0-43.852-16.677-44.383-17.367A4.827 4.827 0 0 0 53.409.016a4.734 4.734 0 0 0-3.753 1.4C36.5 14.585 4.462 19.312 4.139 19.36A4.826 4.826 0 0 0 0 24.137v74.637A43.637 43.637 0 0 0 21.077 136l29.505 17.7a4.822 4.822 0 0 0 4.968 0L85.057 136a43.64 43.64 0 0 0 21.077-37.228V24.137a4.825 4.825 0 0 0-4.825-4.825zm-4.824 79.461a33.944 33.944 0 0 1-16.4 28.946l-27.018 16.224-27.016-16.215a33.942 33.942 0 0 1-16.4-28.945V28.214c8.9-1.664 29.954-6.489 43.076-16.669a67.6 67.6 0 0 0 43.76 17.291zm0 0" class="cls-2" data-name="Path 498" transform="translate(0 -.001)"/>
            </g>
        </g>
        <g id="_015-premium-badge" data-name="015-premium-badge" transform="translate(912.905 458.554)">
            <g id="Layer_5_21_">
                <g id="Group_591" data-name="Group 591">
                    <path id="Path_488" d="M85.867 58.877L76.8 43.288c1.57-.479 3.242-.9 3.936-2.1 1.158-2-.9-5.278-.362-7.42.557-2.2 3.848-4.113 3.848-6.354 0-2.184-3.4-4.735-3.96-6.927-.545-2.142 1.51-5.425.348-7.421s-5.033-1.834-6.626-3.366c-1.639-1.577-1.634-5.436-3.61-6.493s-5.21 1.083-7.413.575C60.782 3.28 58.836 0 56.561 0 54.252 0 50.579 3.72 50 3.854c-2.2.512-5.432-1.627-7.414-.561s-1.962 4.919-3.6 6.5c-1.59 1.535-5.459 1.378-6.617 3.377s.9 5.277.362 7.42-3.948 4.326-3.948 6.812c0 2.241 3.3 4.143 3.86 6.347.545 2.142-1.51 5.424-.348 7.421.632 1.087 2.067 1.533 3.5 1.962.167.05.483.237.269.549L27.2 58.991a1.264 1.264 0 0 0 1.132 2.064l6.12.255a4.872 4.872 0 0 1 3.486 2.02l3.262 5.182a1.264 1.264 0 0 0 2.354-.044l9.141-15.78c.183-.214.368-.17.456-.1a6.325 6.325 0 0 0 3.557 1.7 5.472 5.472 0 0 0 3.245-1.688c.085-.072.292-.221.443.087l9.13 15.694a1.264 1.264 0 0 0 2.354.04l3.257-5.188a4.872 4.872 0 0 1 3.483-2.026l6.12-.267a1.264 1.264 0 0 0 1.127-2.063zM66.675 44.686a20.283 20.283 0 1 1-.406-35.363l.151.084.213.12a20.32 20.32 0 0 1 .042 35.159z" class="cls-2" data-name="Path 488" transform="translate(-26.93)"/>
                    <path id="Path_489" d="M119.05 55.852l-.085-.048a17.1 17.1 0 0 0-17.655 29.285c.195.123.391.244.592.361a17.1 17.1 0 0 0 17.147-29.6zm2.041 13.341l-2.857 2.785a4.8 4.8 0 0 0-1.229 3.783l.674 3.933c.209 1.218-.515 1.744-1.609 1.169l-3.532-1.857a4.8 4.8 0 0 0-3.978 0l-3.532 1.857c-1.094.575-1.818.049-1.609-1.169l.675-3.933a4.8 4.8 0 0 0-1.229-3.783l-2.857-2.785c-.885-.863-.608-1.714.615-1.892l3.949-.574a4.8 4.8 0 0 0 3.218-2.338l1.766-3.578c.547-1.108 1.442-1.108 1.989 0l1.766 3.578a4.8 4.8 0 0 0 3.218 2.338l3.949.574c1.222.178 1.499 1.029.614 1.892z" class="cls-2" data-name="Path 489" transform="translate(-80.852 -43.474)"/>
                </g>
            </g>
        </g>
    </g>
</svg>
